<?xml version="1.0" standalone="no"?>
<!DOCTYPE svg PUBLIC "-//W3C//DTD SVG 20010904//EN"
 "http://www.w3.org/TR/2001/REC-SVG-20010904/DTD/svg10.dtd">
<svg version="1.0" xmlns="http://www.w3.org/2000/svg"
 width="512.000000pt" height="512.000000pt" viewBox="0 0 512.000000 512.000000"
 preserveAspectRatio="xMidYMid meet">

<g transform="translate(0.000000,512.000000) scale(0.100000,-0.100000)"
fill="#000000" stroke="none">
<path d="M1475 5105 c-248 -55 -433 -222 -512 -460 -23 -71 -27 -99 -31 -262
l-4 -182 25 -25 c33 -33 71 -33 102 -1 24 23 25 28 25 172 0 173 14 245 66
344 44 83 139 176 224 219 124 62 89 61 1218 58 l1027 -3 59 -22 c155 -60 266
-168 328 -321 l23 -57 5 -1386 c5 -1346 6 -1388 24 -1408 25 -28 79 -28 106
-1 20 20 20 28 18 1418 l-3 1397 -27 73 c-39 108 -84 177 -168 262 -54 54 -97
87 -155 117 -164 84 -60 78 -1240 80 -846 1 -1062 -1 -1110 -12z"/>
<path d="M1615 4706 c-112 -35 -200 -112 -249 -216 l-31 -65 0 -1345 0 -1345
31 -65 c39 -83 111 -155 194 -194 l65 -31 935 0 935 0 60 29 c120 59 205 175
226 308 6 39 9 553 7 1343 l-3 1280 -23 58 c-47 115 -140 203 -254 239 -56 17
-111 18 -956 17 -695 0 -906 -3 -937 -13z m1900 -171 c26 -16 54 -39 61 -51
13 -20 -13 -30 -1029 -399 -573 -208 -1048 -381 -1054 -383 -17 -6 -18 643 -2
702 13 49 103 141 150 155 21 6 370 9 930 8 l896 -2 48 -30z m123 -932 l-3
-717 -375 -136 c-370 -135 -375 -137 -405 -121 -25 13 -73 17 -277 19 -258 3
-305 -2 -352 -39 -45 -35 -61 -77 -66 -172 l-5 -89 -338 -123 -337 -122 0 717
0 716 1073 391 c589 216 1075 392 1080 392 4 1 6 -322 5 -716z m0 -1355 l-3
-473 -30 -54 c-16 -29 -43 -64 -60 -77 -74 -56 -30 -54 -982 -54 -610 0 -890
3 -918 11 -56 16 -139 100 -154 157 -7 23 -11 75 -9 115 l3 72 335 121 335
122 5 -186 c5 -193 8 -209 52 -249 52 -49 80 -53 350 -53 235 0 255 1 295 21
29 14 52 35 68 63 l25 43 0 325 0 326 73 26 c39 15 187 69 327 120 140 52 263
94 273 95 17 1 18 -22 15 -471z m-843 -73 l0 -320 -240 0 -240 0 -3 314 c-2
245 1 316 10 323 7 4 117 7 243 5 l230 -2 0 -320z"/>
<path d="M1762 4327 c-31 -33 -29 -80 4 -106 23 -18 41 -21 130 -21 57 0 114
5 128 11 51 23 55 103 7 128 -11 6 -71 11 -134 11 -106 0 -115 -2 -135 -23z"/>
<path d="M1823 3498 c-33 -16 -46 -59 -41 -144 3 -65 7 -79 27 -95 30 -25 62
-24 95 2 25 19 26 25 26 110 0 82 -2 92 -25 114 -26 27 -47 30 -82 13z"/>
<path d="M3223 3500 c-34 -14 -43 -42 -43 -130 0 -73 3 -83 25 -105 13 -14 36
-25 50 -25 14 0 37 11 50 25 23 22 25 32 25 108 0 66 -4 89 -17 105 -21 25
-60 35 -90 22z"/>
<path d="M2349 3477 c-59 -39 -71 -75 -66 -207 3 -100 7 -122 30 -166 86 -168
306 -204 436 -72 64 65 75 99 79 243 3 117 1 133 -18 163 -33 54 -67 62 -258
62 -159 0 -171 -1 -203 -23z m331 -204 c0 -89 -12 -118 -59 -150 -42 -28 -86
-29 -129 -3 -44 27 -62 74 -62 160 l0 70 125 0 125 0 0 -77z"/>
<path d="M3090 2350 c-25 -25 -26 -71 -1 -101 19 -24 23 -24 189 -24 153 0
172 2 191 19 27 25 28 79 1 106 -18 18 -33 20 -190 20 -157 0 -172 -2 -190
-20z"/>
<path d="M3090 2090 c-30 -30 -27 -83 6 -109 24 -19 40 -21 144 -21 104 0 120
2 144 21 33 26 36 79 6 109 -18 18 -33 20 -150 20 -117 0 -132 -2 -150 -20z"/>
<path d="M954 3925 l-24 -25 2 -1152 3 -1153 27 -80 c93 -274 316 -446 620
-477 18 -2 88 -60 231 -191 l205 -187 -9 -38 c-96 -430 -99 -453 -78 -509 15
-40 48 -73 94 -94 37 -17 75 -19 534 -19 482 0 496 1 538 21 46 22 88 80 99
135 3 18 -14 117 -46 258 -28 126 -49 235 -48 241 2 7 93 95 204 196 l200 184
103 16 c149 24 268 84 371 188 85 87 150 189 150 238 0 43 -30 73 -73 73 -39
0 -53 -13 -93 -90 -63 -119 -194 -218 -339 -255 -88 -22 -2037 -22 -2133 0
-193 46 -351 203 -397 396 -13 55 -15 221 -15 1182 l0 1118 -25 24 c-31 32
-69 32 -101 0z m1143 -2907 c-3 -13 -13 -60 -23 -105 l-17 -82 -46 39 c-25 22
-77 69 -116 105 l-70 64 139 1 138 0 -5 -22z m763 17 c0 -3 43 -197 95 -432
72 -322 92 -430 84 -440 -10 -11 -98 -13 -488 -11 -451 3 -476 4 -479 21 -2
10 38 209 90 443 l93 424 302 0 c167 0 303 -2 303 -5z m315 -100 c-125 -118
-114 -119 -144 18 l-19 87 137 0 136 -1 -110 -104z"/>
</g>
</svg>
